<?xml version="1.0" encoding="utf-8"?>
<!-- Generator: Adobe Illustrator 20.1.0, SVG Export Plug-In . SVG Version: 6.00 Build 0)  -->
<svg version="1.1" id="Calque_1" xmlns="http://www.w3.org/2000/svg" xmlns:xlink="http://www.w3.org/1999/xlink" x="0px" y="0px"
	 width="500px" height="500px" viewBox="0 0 500 500" style="enable-background:new 0 0 500 500;" xml:space="preserve">
<path d="M463.6,36.4C446,18.8,424.8,10,400,10H100c-24.8,0-46,8.8-63.6,26.4C18.8,54,10,75.2,10,100v300c0,24.8,8.8,46,26.4,63.6
	C54,481.2,75.2,490,100,490h300c24.8,0,46-8.8,63.6-26.4C481.2,446,490,424.8,490,400V100C490,75.2,481.2,54,463.6,36.4z
	 M208.8,296.9c-12.9,12.9-28.5,19.4-46.9,19.4c-18.3,0-34-6.5-46.9-19.4C102.1,284,95.6,268.3,95.6,250c0-18.3,6.5-34,19.4-46.9
	c12.9-12.9,28.5-19.4,46.9-19.4c18.3,0,34,6.5,46.9,19.4c12.9,12.9,19.4,28.5,19.4,46.9C228.1,268.3,221.7,284,208.8,296.9z
	 M385,296.9c-12.9,12.9-28.5,19.4-46.9,19.4c-18.3,0-34-6.5-46.9-19.4c-12.9-12.9-19.4-28.5-19.4-46.9c0-18.3,6.5-34,19.4-46.9
	c12.9-12.9,28.5-19.4,46.9-19.4c18.3,0,34,6.5,46.9,19.4c12.9,12.9,19.4,28.5,19.4,46.9C404.4,268.3,397.9,284,385,296.9z"/>
</svg>
