<?xml version="1.0" encoding="utf-8"?>
<!-- Generator: Adobe Illustrator 20.1.0, SVG Export Plug-In . SVG Version: 6.00 Build 0)  -->
<svg version="1.1" id="Calque_1" xmlns="http://www.w3.org/2000/svg" xmlns:xlink="http://www.w3.org/1999/xlink" x="0px" y="0px"
	 width="500px" height="500px" viewBox="0 0 500 500" style="enable-background:new 0 0 500 500;" xml:space="preserve">
<path d="M370.2,10.1L307.8,10c-70.1,0-115.3,46.4-115.3,118.1v54.5h-62.7c-5.4,0-9.8,4.4-9.8,9.8v78.9c0,5.4,4.4,9.8,9.8,9.8h62.7
	v199.1c0,5.4,4.4,9.8,9.8,9.8h81.8c5.4,0,9.8-4.4,9.8-9.8V281.1h73.3c5.4,0,9.8-4.4,9.8-9.8l0-78.9c0-2.6-1-5.1-2.9-6.9
	c-1.8-1.8-4.3-2.9-6.9-2.9h-73.3v-46.2c0-22.2,5.3-33.5,34.3-33.5l42,0c5.4,0,9.8-4.4,9.8-9.8V19.9C380,14.5,375.6,10.1,370.2,10.1z
	"/>
</svg>
