<?xml version="1.0" encoding="utf-8"?>
<!-- Generator: Adobe Illustrator 20.1.0, SVG Export Plug-In . SVG Version: 6.00 Build 0)  -->
<svg version="1.1" id="Calque_1" xmlns="http://www.w3.org/2000/svg" xmlns:xlink="http://www.w3.org/1999/xlink" x="0px" y="0px"
	 width="500px" height="500px" viewBox="0 0 500 500" style="enable-background:new 0 0 500 500;" xml:space="preserve">
<g>
	<g>
		<path d="M73,178.2H10v146.5h63c53.7,0,85.5-33.4,85.5-73.1C158.5,211,127,178.2,73,178.2z M69.2,276.2h-7.7v-50.1h7.7
			c25.2,0,37.5,11.1,37.5,25.2C106.7,265.2,94.9,276.2,69.2,276.2z M290.3,251.3c4.4-1.1,9.3-6.2,12.3-11.6c3-5.7,4.4-11.9,4.4-17.6
			c0.3-24.9-17.5-43.9-50.9-43.9H180v146.5h79.4c35.9,0,50.7-18.4,50.7-43.6c0-7.1-2.2-14.7-6.3-20.1
			C299.9,255.8,294.2,252.1,290.3,251.3z M230.4,221.2h15.1c7.4,0,11.2,3.4,11.2,8.5c0,4.8-3.6,8.5-11.2,8.5h-15.1V221.2z
			 M259.9,272.8c0,4.8-3.6,8.8-11.2,8.8h-18.4v-17.3h18.4C256.4,264.3,260.2,268,259.9,272.8z M424.3,229.7
			c-5.2,4.5-12.9,11.9-12.9,11.9s-7.1-7.1-12.9-11.9l-65.7-57.2v155l51.5-14.2v-24.6c0-5.9-0.5-11.6-0.5-11.6l28.2,25.2l27.1-24.9
			c0,0-0.5,4.5-0.5,10.5v25.5l51.5,14.2v-155L424.3,229.7z"/>
	</g>
</g>
</svg>
