<?xml version="1.0" encoding="utf-8"?>
<!-- Generator: Adobe Illustrator 20.1.0, SVG Export Plug-In . SVG Version: 6.00 Build 0)  -->
<svg version="1.1" id="Calque_1" xmlns="http://www.w3.org/2000/svg" xmlns:xlink="http://www.w3.org/1999/xlink" x="0px" y="0px"
	 width="500px" height="500px" viewBox="0 0 500 500" style="enable-background:new 0 0 500 500;" xml:space="preserve">
<g>
	<path d="M357.5,10H142.5C69.4,10,10,69.4,10,142.5v215.1c0,73,59.4,132.5,132.5,132.5h215.1c73,0,132.5-59.4,132.5-132.5V142.5
		C490,69.4,430.6,10,357.5,10z M447.4,357.5c0,49.6-40.3,89.9-89.9,89.9H142.5c-49.6,0-89.9-40.3-89.9-89.9V142.5
		c0-49.6,40.3-89.9,89.9-89.9h215.1c49.6,0,89.9,40.3,89.9,89.9L447.4,357.5L447.4,357.5z"/>
	<path d="M250,126.3c-68.2,0-123.7,55.5-123.7,123.7c0,68.2,55.5,123.7,123.7,123.7S373.7,318.2,373.7,250
		C373.7,181.8,318.2,126.3,250,126.3z M250,331.1c-44.7,0-81.1-36.4-81.1-81.1c0-44.7,36.4-81.1,81.1-81.1s81.1,36.4,81.1,81.1
		C331.1,294.7,294.7,331.1,250,331.1z"/>
	<path d="M378.9,90.2c-8.2,0-16.3,3.3-22.1,9.1c-5.8,5.8-9.2,13.9-9.2,22.1c0,8.2,3.4,16.3,9.2,22.1c5.8,5.8,13.9,9.1,22.1,9.1
		c8.2,0,16.3-3.4,22.1-9.1c5.8-5.8,9.1-13.9,9.1-22.1c0-8.2-3.3-16.3-9.1-22.1C395.2,93.5,387.1,90.2,378.9,90.2z"/>
</g>
</svg>
