<?xml version="1.0" encoding="utf-8"?>
<!-- Generator: Adobe Illustrator 20.1.0, SVG Export Plug-In . SVG Version: 6.00 Build 0)  -->
<svg version="1.1" id="Calque_1" xmlns="http://www.w3.org/2000/svg" xmlns:xlink="http://www.w3.org/1999/xlink" x="0px" y="0px"
	 width="500px" height="500px" viewBox="0 0 500 500" style="enable-background:new 0 0 500 500;" xml:space="preserve">
<g>
	<g>
		<path d="M75.4,359.1c-18.2,0-33.6,6.4-46.4,19.1C16.4,390.9,10,406.3,10,424.5c0,18.2,6.4,33.6,19.1,46.4
			C41.8,483.6,57.3,490,75.4,490c18.2,0,33.6-6.4,46.4-19.1c12.7-12.7,19.1-28.2,19.1-46.4c0-18.2-6.4-33.6-19.1-46.4
			C109.1,365.4,93.6,359.1,75.4,359.1z M288,362.1c-15.3-33.2-36-62.6-61.9-88.3c-25.7-25.9-55.1-46.5-88.3-61.9
			c-33.2-15.3-67.9-24.5-104.3-27.4h-1.7c-5.9,0-10.8,1.9-14.7,5.8c-4.8,4.1-7.2,9.4-7.2,16v46c0,5.7,1.9,10.6,5.6,14.7
			c3.7,4.1,8.5,6.4,14.1,6.8c52,5,96.5,26,133.4,62.9c36.9,36.9,57.9,81.4,62.9,133.4c0.5,5.7,2.7,10.4,6.8,14.1
			c4.1,3.8,9,5.6,14.7,5.6h46c6.6,0,11.9-2.4,16-7.2c4.3-4.6,6.3-10,5.8-16.4C312.5,430.1,303.3,395.3,288,362.1z M489.9,467.1
			c-3-59.5-16.6-116.5-40.9-171c-24.3-54.4-57.7-102.8-100.2-145c-42.3-42.5-90.6-75.9-145-100.2C149.4,26.6,92.4,13,32.8,10h-1
			c-5.9,0-10.9,2-15,6.1c-4.5,4.1-6.8,9.3-6.8,15.7v48.7c0,5.7,2,10.6,6,14.8c4,4.2,8.8,6.4,14.5,6.6c48.9,3,95.3,14.6,139.2,34.8
			c44,20.2,82.1,46.5,114.5,78.9c32.4,32.4,58.7,70.6,78.9,114.5c20.2,44,31.7,90.4,34.4,139.2c0.2,5.7,2.4,10.5,6.6,14.5
			c4.2,4,9.3,6,15.2,6h48.7c6.4,0,11.6-2.3,15.7-6.8C488.3,478.6,490.4,473.3,489.9,467.1z"/>
	</g>
</g>
</svg>
