<?xml version="1.0" encoding="utf-8"?>
<!-- Generator: Adobe Illustrator 20.1.0, SVG Export Plug-In . SVG Version: 6.00 Build 0)  -->
<svg version="1.1" id="Calque_1" xmlns="http://www.w3.org/2000/svg" xmlns:xlink="http://www.w3.org/1999/xlink" x="0px" y="0px"
	 width="500px" height="500px" viewBox="0 0 500 500" style="enable-background:new 0 0 500 500;" xml:space="preserve">
<path d="M470.4,108.4c-19.6,0-39.2,0-58.8,0c0-17.6,0-35.3,0-52.9c0-10.8-8.8-19.6-19.6-19.6c-94.7,0-189.4,0-284.1,0
	c-10.8,0-19.6,8.8-19.6,19.6c0,17.6,0,35.3,0,52.9c-19.6,0-39.2,0-58.8,0c-10.8,0-19.6,8.8-19.6,19.6c0,64,0,128,0,192
	c0,10.8,8.8,19.6,19.6,19.6c19.6,0,39.2,0,58.8,0c0,23.1,0,46.3,0,69.4c0,11.3,0,22.6,0,33.9c0,6.5,1.3,11.4,6.4,16
	c2.4,2.2,4.9,3.5,7.9,4.4c2.8,0.8,5.6,0.7,8.5,0.7c46.3,0,92.5,0,138.8,0c46.3,0,92.5,0,138.8,0c2.9,0,5.7,0.1,8.5-0.7
	c3.1-0.9,5.6-2.3,7.9-4.4c5-4.6,6.4-9.5,6.4-16c0-11.3,0-22.6,0-33.9c0-23.1,0-46.2,0-69.4c19.6,0,39.2,0,58.8,0
	c10.8,0,19.6-8.8,19.6-19.6c0-64,0-128,0-192C490,117.2,481.2,108.4,470.4,108.4z M59,177.5c-9.5,0-17.1-7.7-17.1-17.1
	s7.7-17.1,17.1-17.1s17.1,7.7,17.1,17.1S68.4,177.5,59,177.5z M392,444.5H108V289.7H392V444.5L392,444.5z M392,108.4
	c-94.7,0-189.4,0-284.1,0c0-11.1,0-22.2,0-33.3c0-10.8,8.8-19.6,19.6-19.6c81.6,0,163.3,0,244.9,0c10.8,0,19.6,8.8,19.6,19.6
	C392,86.2,392,97.3,392,108.4z"/>
</svg>
