<?xml version="1.0" encoding="utf-8"?>
<!-- Generator: Adobe Illustrator 20.1.0, SVG Export Plug-In . SVG Version: 6.00 Build 0)  -->
<svg version="1.1" id="Calque_1" xmlns="http://www.w3.org/2000/svg" xmlns:xlink="http://www.w3.org/1999/xlink" x="0px" y="0px"
	 width="500px" height="500px" viewBox="0 0 500 500" style="enable-background:new 0 0 500 500;" xml:space="preserve">
<g>
	<path d="M330.3,490H179.4v-20.9c4.9-0.4,9.9-0.8,15-1.3c5.2-0.4,9.7-1.3,13.5-2.5c5.9-1.9,10.3-5.2,13.1-10
		c2.8-4.8,4.3-10.9,4.3-18.5V244c0-6.7-1.5-12.9-4.6-18.5c-3.1-5.6-7.3-10.3-12.8-14.1c-4-2.5-9.8-4.7-17.4-6.5
		c-7.6-1.8-14.6-2.9-20.9-3.3v-20.9l110.3-7l4.4,4.4V433c0,7.4,1.4,13.5,4.3,18.4c2.8,4.9,7.3,8.4,13.4,10.8
		c4.6,1.9,9.1,3.4,13.5,4.6c4.4,1.2,9.3,2,14.8,2.4V490H330.3z M290.7,50.5c0,12-4,22.5-11.9,31.5s-17.7,13.5-29.3,13.5
		c-10.8,0-20.1-4.3-28-12.8s-11.9-18.3-11.9-29.3c0-11.6,4-21.8,11.9-30.4s17.3-13,28-13c12,0,21.9,4.1,29.6,12.2
		C286.9,30.2,290.7,39.7,290.7,50.5z"/>
</g>
</svg>
