<?xml version="1.0" encoding="utf-8"?>
<!-- Generator: Adobe Illustrator 20.1.0, SVG Export Plug-In . SVG Version: 6.00 Build 0)  -->
<svg version="1.1" id="Calque_1" xmlns="http://www.w3.org/2000/svg" xmlns:xlink="http://www.w3.org/1999/xlink" x="0px" y="0px"
	 width="500px" height="500px" viewBox="0 0 500 500" style="enable-background:new 0 0 500 500;" xml:space="preserve">
<path d="M490,301.9v177.5H387.1V313.8c0-41.6-14.9-70-52.1-70c-28.4,0-45.3,19.1-52.8,37.6c-2.7,6.6-3.4,15.8-3.4,25.1v172.8H175.9
	c0,0,1.4-280.4,0-309.5h102.9v43.9c-0.2,0.3-0.5,0.7-0.7,1h0.7v-1c13.7-21.1,38.1-51.1,92.7-51.1C439.2,162.6,490,206.8,490,301.9z
	 M68.2,20.7C33,20.7,10,43.8,10,74.1c0,29.7,22.4,53.5,56.9,53.5h0.7c35.9,0,58.2-23.8,58.2-53.5C125.1,43.8,103.4,20.7,68.2,20.7z
	 M16.1,479.3H119V169.9H16.1V479.3z"/>
</svg>
