<?xml version="1.0" encoding="utf-8"?>
<!-- Generator: Adobe Illustrator 20.1.0, SVG Export Plug-In . SVG Version: 6.00 Build 0)  -->
<svg version="1.1" id="Calque_1" xmlns="http://www.w3.org/2000/svg" xmlns:xlink="http://www.w3.org/1999/xlink" x="0px" y="0px"
	 width="500px" height="500px" viewBox="0 0 500 500" style="enable-background:new 0 0 500 500;" xml:space="preserve">
<path d="M215.8,327.5C202.8,393.5,187,456.9,140,490c-14.5-99.9,21.3-174.9,37.9-254.5c-28.3-46.3,3.4-139.5,63.2-116.5
	c73.5,28.2-63.7,172.1,28.4,190.1c96.2,18.8,135.4-162,75.8-220.8C259.1,3.4,94.5,86.3,114.7,207.9c4.9,29.7,36.5,38.7,12.6,79.7
	c-55.1-11.9-71.6-54.1-69.5-110.4c3.4-92.1,85.3-156.7,167.4-165.6C329.1,0.3,426.6,48.6,440,143.5c15.2,107.1-46.9,223-157.9,214.7
	C252,355.9,239.4,341.4,215.8,327.5z"/>
</svg>
