<?xml version="1.0" encoding="utf-8"?>
<!-- Generator: Adobe Illustrator 20.1.0, SVG Export Plug-In . SVG Version: 6.00 Build 0)  -->
<svg version="1.1" id="Calque_1" xmlns="http://www.w3.org/2000/svg" xmlns:xlink="http://www.w3.org/1999/xlink" x="0px" y="0px"
	 width="500px" height="500px" viewBox="0 0 500 500" style="enable-background:new 0 0 500 500;" xml:space="preserve">
<path d="M476.8,59.3c-19,11.5-40.1,19.8-62.6,24.3c-18-19.5-43.5-31.6-71.9-31.6c-54.4,0-98.5,44.8-98.5,100
	c0,7.8,0.9,15.5,2.5,22.8c-81.8-4.2-154.4-44-203-104.5C35,85,30.1,102.2,30.1,120.5c0,34.7,17.4,65.3,43.8,83.2
	c-16.1-0.5-31.3-5.1-44.6-12.6v1.2c0,48.4,34,88.8,79,98.1c-8.2,2.3-16.9,3.5-25.9,3.5c-6.4,0-12.5-0.7-18.5-1.8
	c12.5,39.7,48.9,68.6,92,69.5c-33.7,26.8-76.2,42.8-122.3,42.8c-8,0-15.8-0.5-23.5-1.4c43.6,28.4,95.3,44.9,151,44.9
	c181.1,0,280.2-152.4,280.2-284.5l-0.3-13c19.3-14,36-31.7,49.2-51.7c-17.7,7.9-36.6,13.3-56.5,15.8
	C453.8,102.2,469.4,82.6,476.8,59.3z"/>
</svg>
