<?xml version="1.0" encoding="utf-8"?>
<!-- Generator: Adobe Illustrator 20.1.0, SVG Export Plug-In . SVG Version: 6.00 Build 0)  -->
<svg version="1.1" id="Calque_1" xmlns="http://www.w3.org/2000/svg" xmlns:xlink="http://www.w3.org/1999/xlink" x="0px" y="0px"
	 width="500px" height="500px" viewBox="0 0 500 500" style="enable-background:new 0 0 500 500;" xml:space="preserve">
<path d="M401.6,315.1c-28,0-52.7,13.3-68.9,33.5l-149.7-76c2-7.3,3.4-14.7,3.4-22.6c0-8.6-1.7-16.7-4-24.5l149-75.6
	c16.1,21.2,41.4,35,70.2,35c48.7,0,88.2-39.1,88.2-87.5c0-48.3-39.4-87.4-88.2-87.4c-48.6,0-88.1,39.2-88.1,87.4
	c0,7.9,1.4,15.4,3.4,22.7l-149.7,76c-16.2-20.3-40.9-33.6-69-33.6c-48.7,0-88.1,39.2-88.1,87.5s39.4,87.5,88.1,87.5
	c28.8,0,54.1-13.9,70.3-35.1l149,75.6c-2.3,7.9-4,16-4,24.6c0,48.3,39.5,87.5,88.1,87.5c48.7,0,88.2-39.2,88.2-87.5
	C489.8,354.2,450.4,315.1,401.6,315.1z"/>
</svg>
