<?xml version="1.0" encoding="utf-8"?>
<!-- Generator: Adobe Illustrator 20.1.0, SVG Export Plug-In . SVG Version: 6.00 Build 0)  -->
<svg version="1.1" id="Calque_1" xmlns="http://www.w3.org/2000/svg" xmlns:xlink="http://www.w3.org/1999/xlink" x="0px" y="0px"
	 width="500px" height="500px" viewBox="0 0 500 500" style="enable-background:new 0 0 500 500;" xml:space="preserve">
<g>
	<g>
		<path d="M369.4,251.3c-0.3-0.8-0.7-1.5-1.1-2.3c-4.4,2.3-8.5,4.6-12.7,6.6c-4.2,1.9-8.4,3.7-12.8,5.2c-4.4,1.5-8.9,2.7-13.4,4.1
			c0,0.4,0,0.7,0.1,0.9c0.2,0.6,0.4,1.2,0.6,1.8c6.2,15.8,9,32.3,9.2,49.2c0.2,14.1-1.6,28-5.7,41.5c-6.2,20.3-16.1,38.5-30.8,53.8
			c-21.4,22.4-47.8,34.4-78.4,37.2c-2.8,0.3-5.7,0.2-8.8,0.3c0.1-0.7,0.1-0.9,0.2-0.9c1.6-1.2,3.2-2.4,4.8-3.6
			c32-24.5,57.2-54.7,75-91.1c14.8-30.2,22.3-62.3,23.1-96c0.4-16.5-1.1-32.8-3.9-49c-3.2-18.4-8.2-36.4-14.7-53.9
			c-0.2-0.5-0.8-1.9-1.2-2.6c-0.4-2.9-0.5-3.8-0.6-4.3c0-0.5,0-1.4,0-1.6c-1.6-15.2-4.3-30.2-8.5-44.9c-5.6-20-13.6-38.9-24.8-56.4
			c-7.7-12.1-16.6-23.1-27.5-32.5c-1-0.9-2.1-1.7-3.4-2.7c0,0.7-0.2,1.1-0.1,1.3c0.8,1.4,1.6,2.8,2.4,4.2
			c18.8,32.7,35.4,66.6,49.5,101.7c3.9,9.6,7.4,19.4,11.1,29.1l1.1,2c0.1,0.6,0.2,1.6,0.6,4.3c0.2,5.1,0.5,10.4,0.6,14.9
			c0.5,26.6-0.2,53.1-2.8,79.6c-1.2,12.2-2.8,24.4-4.8,36.5c-2.6,15.2-5.9,30.2-10.2,45c-5.3,18.2-11.9,35.8-20.9,52.5
			c-8,14.8-17.6,28.5-29.6,40.3c-11.1,10.8-23.7,19.4-38,25.4c-1.5,0.6-3,0.8-4.7,0.5c-19.5-3.8-37-11.9-52.6-24.3
			c-13.5-10.7-23.9-23.9-32.1-39.1c-8.7-16.2-13.9-33.4-15.7-51.7c-1.1-10.8-0.8-21.5,0.4-32.3c1.6-13.2,4.9-25.8,10.2-37.9
			c7.9-18,19.6-33.3,34.1-46.5c11.2-10.1,23.7-18.1,37.8-23.5c9.1-3.5,18.5-5.7,28.2-6.8c8.6-1,17.1-1.1,25.7-0.4
			c10.9,0.9,21.6,3.3,31.8,7.3c0.9,0.3,1.8,0.6,3.1,1c0.9-7.2,2.3-14,4.4-20.7c2.1-6.7,5-13.1,7.9-19.4c-1.6-1.3-3.4-1.6-5-2.1
			c-13.9-4.5-28.2-7-42.7-7.8c-15.6-0.9-31,0.2-46.3,3.2c-18.3,3.7-35.4,10.5-51.3,20.5c-15.1,9.5-28.1,21.4-39.6,35.1
			c-25.5,30.3-39.1,65.3-41.2,104.9c-0.6,11.4-0.2,22.8,1.2,34.1c2,16,6,31.5,12.4,46.3C69,411.1,84,431.7,103,449.3
			c14,13,30,23,47.9,29.8c16.6,6.4,33.9,9.7,51.6,10.6c16.4,0.8,32.8-0.1,48.9-3.5c21.8-4.6,41.8-13.4,59.7-26.8
			c14-10.4,25.9-23,36.2-37.1c20.6-27.9,31.7-59.3,33.7-94c0.8-14.2,0.1-28.3-2.2-42.3C376.9,274.1,373.8,262.5,369.4,251.3z
			 M449.7,63.8c-3.6-13.5-8.7-26.4-15.6-38.5c-1-1.7-2.1-3.4-3.4-5.4c-1,1.8-1.7,3.1-2.5,4.5c-4.8,9.1-10.8,17.4-18.2,24.6
			c-11.2,10.9-24.1,18.8-39.3,22.6c-1.3,0.3-2.6,0.7-4,1.1c-11.2,3.3-22.1,7.5-32.2,13.5c-7,4.1-12.9,9.2-17.9,15.7
			c-9.2,12-13.6,25.5-12.9,40.6c0.5,12.3,4,23.9,9.9,34.7c0.3,0.5,0.7,1,1.3,1.8c48.2-11.9,84.3-39.7,109.3-83.6
			c-0.1,1.5,0,2.2-0.2,2.9c-0.8,3.8-2.2,7.4-3.9,10.9c-3.7,7.7-8.8,14.5-14.4,20.9c-9.8,11.1-20.9,20.7-32.6,29.7
			c-14.1,10.9-29,20.7-44.3,29.7c-1.1,0.7-2.5,1.1-3.3,2.5c2.1,1.9,4.1,3.8,6.1,5.5c7.9,6.7,16.5,12.1,26.3,15.3
			c9.3,3.1,18.7,3.9,28.3,2.2c11.7-2,21.8-7.3,30.8-15c8.7-7.5,15.5-16.6,21.2-26.5c3.3-5.7,6.4-11.6,8.6-17.9
			c4.5-13.1,7.1-26.6,7.9-40.4C455.8,97.8,454.2,80.6,449.7,63.8z"/>
	</g>
</g>
</svg>
