<?xml version="1.0" encoding="utf-8"?>
<!-- Generator: Adobe Illustrator 20.1.0, SVG Export Plug-In . SVG Version: 6.00 Build 0)  -->
<svg version="1.1" id="Calque_1" xmlns="http://www.w3.org/2000/svg" xmlns:xlink="http://www.w3.org/1999/xlink" x="0px" y="0px"
	 width="500px" height="500px" viewBox="0 0 500 500" style="enable-background:new 0 0 500 500;" xml:space="preserve">
<path d="M489.7,209.8c-0.2-9.6-0.9-21.8-2.3-36.6c-1.3-14.7-3.3-27.9-5.8-39.5c-2.9-13-9.1-24-18.6-32.9
	c-9.6-8.9-20.7-14.1-33.4-15.5c-39.6-4.5-99.6-6.7-179.7-6.7c-80.2,0-140.1,2.2-179.7,6.7c-12.7,1.4-23.8,6.6-33.2,15.5
	c-9.5,8.9-15.6,19.9-18.5,32.9c-2.7,11.6-4.7,24.8-6,39.5c-1.3,14.7-2.1,26.9-2.3,36.6c-0.2,9.6-0.3,23-0.3,40.2
	c0,17.1,0.1,30.5,0.3,40.2c0.2,9.6,0.9,21.8,2.3,36.6c1.3,14.7,3.3,27.9,5.8,39.5c2.9,13,9.1,24,18.6,32.9
	c9.6,8.9,20.7,14.1,33.4,15.5c39.6,4.5,99.6,6.7,179.7,6.7c80.2,0,140.1-2.2,179.7-6.7c12.7-1.4,23.8-6.6,33.2-15.5
	c9.5-8.9,15.6-19.9,18.5-32.9c2.7-11.6,4.7-24.8,6-39.5c1.3-14.7,2.1-26.9,2.3-36.6c0.2-9.6,0.3-23,0.3-40.2
	C490,232.9,489.9,219.5,489.7,209.8z M344.8,264.5l-137.1,85.7c-2.5,1.8-5.5,2.7-9.1,2.7c-2.7,0-5.4-0.7-8.3-2.1
	c-5.9-3.2-8.8-8.2-8.8-15V164.3c0-6.8,2.9-11.8,8.8-15c6.1-3.2,11.9-3,17.4,0.5l137.1,85.7c5.4,3,8,7.9,8,14.5
	S350.2,261.4,344.8,264.5z"/>
</svg>
